<!-- SVG Sprite -->
<svg width="0" height="0" class="hidden">
  <symbol xmlns="http://www.w3.org/2000/svg" viewBox="0 0 138.88 81.79" id="bike">
    <title>bike</title>
    <path d="M29.16 40.4a20.69 20.69 0 1020.69 20.69A20.71 20.71 0 0029.16 40.4zm0 37.57a16.88 16.88 0 1116.88-16.88 16.9 16.9 0 01-16.88 16.9z"></path>
    <path d="M29.16 50.5a10.6 10.6 0 1010.59 10.59A10.61 10.61 0 0029.16 50.5zm0 17.38a6.79 6.79 0 116.77-6.79 6.8 6.8 0 01-6.77 6.79z"></path>
    <path d="M118.19 40.4a20.49 20.49 0 00-5.44.73l-.18.05-2.87-7 3.16-1.3a1.84 1.84 0 001-1 1.9 1.9 0 000-1.46l-1.05-2.54h4.76a1.91 1.91 0 001.9-1.91v-14.6a1.9 1.9 0 00-1.9-1.9h-4.64a9.13 9.13 0 00-6.31 2.52l-.23.21-1.23-3a1.9 1.9 0 00-1.73-1.21 1.79 1.79 0 00-.72.15l-3.18 1.3-2.27-5.45A5.83 5.83 0 0092.05.05h-7.83a1.91 1.91 0 000 3.81h7.8c1.08 0 1.62 1.37 1.65 1.43v.11l2.3 5.57-3.3 1.35a1.94 1.94 0 00-1 1 1.9 1.9 0 000 1.46l1.2 2.92h-4.66a1.87 1.87 0 00-1.43.65l-11 12.51a9.92 9.92 0 00.62 13.75l.15.14-3.86 4.39-.12-.34a10 10 0 00-9.38-6.63h-.95l3.38-7.53a1.91 1.91 0 00.16-.78V29.9a10 10 0 00-10-9.95H31.19a9.9 9.9 0 00-9.9 9v.43l-3.38-3.24a1.92 1.92 0 00-1.32-.53h-12a1.9 1.9 0 00-1.9 1.9v7.4a1.92 1.92 0 00.58 1.37l4.86 4.71-.14.15a29.07 29.07 0 00-7.93 20 1.91 1.91 0 103.81 0 25.35 25.35 0 1149.61 7.35 1.92 1.92 0 00.14 1.45 1.9 1.9 0 001.13.93 2.1 2.1 0 00.56.08h8a10 10 0 009.53-7.08v-.15h2.28a10.35 10.35 0 007.79-3.53l20.56-23.38 2.75-1.13 2.85 6.92-.18.09a20.68 20.68 0 109.35-2.24zm-98.55-6.86a28.89 28.89 0 00-8.61 4.74l-.15.11-4.44-4.3v-4.68h9.34l4.18 4zm5.41-1.61v-2.05a6.15 6.15 0 016.14-6.14h24.67A6.15 6.15 0 0162 29.88v2.05zm26.19 10.15a29.73 29.73 0 00-7-5.95l-.65-.39h17.34l-2.88 6.41h-6.79zm18.12 18.91a6.14 6.14 0 01-6.14 6.14h-5.53l.06-.25a29.35 29.35 0 00.57-5.75 29 29 0 00-4.06-14.81l-.18-.32h9.14a6.15 6.15 0 016.14 6.14zm43.57-47.71h2.74v10.76h-2.74a5.38 5.38 0 110-10.76zM78.65 33.35l10.4-11.86h5.35l.82 2-16.16 18.38-.16-.16a6.16 6.16 0 01-.22-8.36zm22.88.05a1.9 1.9 0 00-.71.51L79.97 57.63a6.57 6.57 0 01-4.93 2.22h-1.9v-5.47l25.79-29.27a1.89 1.89 0 00.34-2l-3.34-8.04 6.47-2.66 1.65 4v.07a9.31 9.31 0 00-.26 2.16 9.15 9.15 0 004.35 7.81h.06l1.47 3.57zm16.66 44.59a16.88 16.88 0 1116.88-16.88 16.9 16.9 0 01-16.88 16.88z"></path>
    <path d="M118.19 50.5a10.6 10.6 0 1010.59 10.59 10.6 10.6 0 00-10.59-10.59zm0 17.38a6.79 6.79 0 116.74-6.79 6.8 6.8 0 01-6.74 6.79z"></path>
  </symbol>
  <symbol xmlns="http://www.w3.org/2000/svg" viewBox="0 0 167.87 221.6" id="female">
    <title>female</title>
    <path d="M167.88 221.6H0v-34.94a46 46 0 0122.87-39.65 3 3 0 113 5.19A40 40 0 006 186.66v28.9h155.88v-28.9a39.85 39.85 0 00-39.8-39.8h-21.85v-20.42a3 3 0 016 0v14.46h15.85a45.85 45.85 0 0145.8 45.8z"></path>
    <path d="M64.65 146.9a3 3 0 01-3-3v-17.46a3 3 0 016 0v17.46a3 3 0 01-3 3zm26.14-31.56h-13.7a3 3 0 010-6h13.7a3 3 0 010 6z"></path>
    <path d="M24.72 179.66a3 3 0 01-3-3V62a62.07 62.07 0 0162-62h4.66a62.07 62.07 0 0162 62v88.66a3 3 0 01-6 0V62a56.06 56.06 0 00-56-56h-4.66a56.06 56.06 0 00-56 56v114.66a3 3 0 01-3 3z"></path>
    <path d="M82.09 134.37c-10.33-.41-19.87-6.31-27.81-17.28-4.79-6.62-5.77-12.85-5.79-20.75 0-.1-.09-28.34-.11-34v-3h3c34.45 0 36.64-21 36.71-21.9l.24-2.75h2.75c17.63 0 32 13.45 32 30v29.66c.05 9.95-4.89 17.23-10.41 24.41-7.29 9.5-15.9 14.83-25.17 15.65-.86.06-4.45.05-5.41-.04zm5.06-6c7.54-.71 14.5-5.17 20.75-13.31 5-6.57 9.21-12.66 9.17-20.74V64.64c0-12.48-10.36-22.77-23.54-23.9-1.83 6.83-9.33 23.46-39.12 24.51 0 8.22.1 30.76.1 31 0 6.89.79 11.91 4.65 17.25 6.77 9.36 14.41 14.32 22.76 14.78.14.06 4.91.01 5.23.12zM5.05 199a3 3 0 010-6c9.19 0 16.67-7.18 16.67-16a3 3 0 016 0c0 12.13-10.17 22-22.67 22z"></path>
    <path d="M45.55 199.5H4.38a3 3 0 010-6h41.17a16 16 0 0016-16 3 3 0 116 0 22 22 0 01-22 22z"></path>
    <path d="M64.55 180.17a3 3 0 01-3-3v-33.34a3 3 0 016 0v33.34a3 3 0 01-3 3z"></path>
    <path d="M83.94 170.83a35.73 35.73 0 01-21.14-7.11 3 3 0 113.54-4.84 29.81 29.81 0 0017.6 5.95c12.36 0 24-8.36 30.32-21.81a3 3 0 015.43 2.55c-7.35 15.58-21.05 25.26-35.75 25.26z"></path>
  </symbol>
  <symbol xmlns="http://www.w3.org/2000/svg" viewBox="0 0 163.15 226.68" id="male">
    <title>male</title>
    <path d="M81.57 134.94a44.93 44.93 0 01-44.79-42.15 11.9 11.9 0 01-9.69-11.68V71.9a11.89 11.89 0 0111.88-11.96h.5a3 3 0 010 6h-.5a5.89 5.89 0 00-5.88 5.88v9.21a5.88 5.88 0 005.88 5.88h.72a3 3 0 013 3 38.88 38.88 0 1077.76.09 3.06 3.06 0 013-3.07h.72a5.88 5.88 0 005.88-5.88v-9.21a5.89 5.89 0 00-5.88-5.88h-.49a3 3 0 010-6h.49a11.89 11.89 0 0111.88 11.88v9.21a11.9 11.9 0 01-9.68 11.68 45 45 0 01-44.8 42.21z"></path>
    <path d="M163.15 226.68H0v-34a44.6 44.6 0 0144.55-44.56h10.59v-20.7a3 3 0 016 0v26.74H44.55A38.6 38.6 0 006 192.72v28h151.15v-28a38.6 38.6 0 00-38.55-38.56h-16.59v-26.74a3 3 0 016 0v20.74h10.59a44.61 44.61 0 0144.55 44.56zM124.11 65.56a3 3 0 01-3-3V51.8c0-13.68-4.29-25.23-11.76-31.68a3.002 3.002 0 013.93-4.54c8.79 7.6 13.83 20.8 13.83 36.22v10.76a3 3 0 01-3 3z"></path>
    <path d="M123.34 65.94a3 3 0 01-2.9-2.23 40.46 40.46 0 00-39.1-30 40.45 40.45 0 00-39.1 30 3.002 3.002 0 11-5.8-1.55 46.48 46.48 0 0137.1-33.76 47.19 47.19 0 017.8-.65 46.47 46.47 0 0144.9 34.42 3 3 0 01-2.13 3.67 3 3 0 01-.77.1z"></path>
    <path d="M39.35 65.56a3 3 0 01-3-3V51.8A45.56 45.56 0 0158.9 12.58C60.52 11.63 79.5.85 80.3.39a3 3 0 014.29 3.68l-1.95 5.09 10.11-3.71a3 3 0 013.84 3.88l-1.06 2.8 10.1-3.72a3 3 0 013.84 3.88l-1.06 2.8.76-.28a3 3 0 112.07 5.63L104.29 23a3 3 0 01-3.84-3.89l1.07-2.79-10.08 3.71a3 3 0 01-3.84-3.88l1.07-2.8-10.11 3.72a3 3 0 01-3.84-3.88l1.31-3.45-14.08 8a39.55 39.55 0 00-19.57 34V62.5a3 3 0 01-3.03 3.06zm50.09 44.11H73.71a3 3 0 010-6h15.73a3 3 0 010 6zm19 74.54H54.73a7.71 7.71 0 01-7.7-7.71v-25.42a3 3 0 016 0v25.42a1.7 1.7 0 001.7 1.71h53.71a1.71 1.71 0 001.71-1.71v-24.48a3 3 0 016 0v24.48a7.71 7.71 0 01-7.71 7.71z"></path>
  </symbol>
  <symbol xmlns="http://www.w3.org/2000/svg" viewBox="0 0 136.33 81.13" id="moto">
    <title>Vector Smart Object1</title>
    <path d="M68.01 47.68a1.91 1.91 0 00-1.9 1.91v5.84a1.91 1.91 0 003.81 0v-5.84a1.92 1.92 0 00-1.91-1.91zm8.47 0a1.92 1.92 0 00-1.91 1.91v5.84a1.91 1.91 0 003.81 0v-5.84a1.91 1.91 0 00-1.9-1.91zm39.16-7.94a20.69 20.69 0 1020.69 20.69 20.72 20.72 0 00-20.69-20.69zm0 37.57a16.88 16.88 0 1116.88-16.88 16.9 16.9 0 01-16.88 16.9z"></path>
    <path d="M115.64 49.84a10.6 10.6 0 1010.59 10.59 10.6 10.6 0 00-10.59-10.59zm0 17.38a6.79 6.79 0 116.78-6.79 6.8 6.8 0 01-6.78 6.79z"></path>
    <path d="M90.29 60.43a25.38 25.38 0 0125.35-25.35 25.89 25.89 0 013 .18h.23a1.87 1.87 0 001-.27 37.17 37.17 0 007.1-5.44 1.9 1.9 0 00.25-2.42c-7.66-11.38-9.58-13.32-9.89-13.59a1.9 1.9 0 00-1.26-.48h-3.68l-.06-.07C103.41 3.15 96.67.24 96.39.12a1.92 1.92 0 00-.74-.15h-5.61a1.91 1.91 0 00-1.78 2.59L93 14.85l-3.47 6.72-2.36-2.61a1.92 1.92 0 00-1.42-.63h-12.6c-3.67 0-6.8 2-9.3 6l-.06.1H50.62l-1.86-4.21a1.92 1.92 0 00-1.74-1.13h-9.79v-.16c-3-11.13-11.44-12-14-12a10.5 10.5 0 00-1.28.07 1.91 1.91 0 00-1.57 2.34l1.82 7.5h-8.85a10 10 0 00-9.95 9.95v1.16h-1a1.91 1.91 0 100 3.81h1v1.17a10 10 0 005.27 8.77l.24.13-8.37 9a1.88 1.88 0 00-.51 1.3v8.3a1.91 1.91 0 001.86 1.9h7v.19a20.69 20.69 0 0040.25 4.32l.16-.47 2.8 5.22a1.89 1.89 0 001.68 1h36.57a1.9 1.9 0 001.77-2.62 25.23 25.23 0 01-1.83-9.54zm2.49-56.62h2.41c1.21.6 5.63 3 11.52 8.89l.36.36H96.31zM64.04 33.65c1.16-4.28 3.89-11.47 9.07-11.47h11.78l2.76 3-4.49 8.7H63.99zM24.95 10.94c3.19.58 7.31 2.86 8.86 10.47a1.92 1.92 0 001.87 1.52h10.06l1.86 4.2a1.89 1.89 0 001.74 1.14h12.48l-.12.29a36.21 36.21 0 00-1.63 5.2v.16h-29.8l-5.6-23zm-17.77 22v-1.17h3.28a1.91 1.91 0 100-3.81H7.18v-1.13a6.14 6.14 0 016.14-6.14h9.77l3.21 13.23h-9.17a1.91 1.91 0 00-1.39.6l-4.07 4.36h-.13a6.18 6.18 0 01-4.36-5.91zm39.08 29.6a16.88 16.88 0 01-33.48 0v-.23h6.34v.17a10.6 10.6 0 0020.78 0v-.17h6.35zM23 62.31h13l-.09.28a6.78 6.78 0 01-12.84 0zM3.81 58.5v-5.65L17.96 37.7h28.28l.06.06a31.67 31.67 0 015.73 8.13l.15.3H31.34a1.91 1.91 0 000 3.81h22.35v.15a31.56 31.56 0 011.45 8.12v.23zm51.15 10.26l-3.47-6.43h5.61a1.91 1.91 0 001.9-1.87v-.71a34.88 34.88 0 00-7.44-21.69l-.26-.34h33a1.92 1.92 0 001.7-1l10.2-19.8h19l.07.07c.59.72 1.72 2.17 3.72 5l.24.33h-7.4a1.91 1.91 0 100 3.81h10l.06.1c.35.5.71 1 1.08 1.58l.11.16-.14.12a33.8 33.8 0 01-4.49 3.32h-.13c-.92-.09-1.84-.13-2.71-.13a29.17 29.17 0 00-28 37.25l.08.27z"></path>
  </symbol>
  <symbol xmlns="http://www.w3.org/2000/svg" viewBox="0 0 123.81 82.58" id="motob">
    <title>Vector Smart Object</title>
    <path d="M106.15 47.25a17.66 17.66 0 1017.66 17.66 17.68 17.68 0 00-17.66-17.66zm0 31.51A13.85 13.85 0 11120 64.91a13.86 13.86 0 01-13.85 13.87z"></path>
    <path d="M106.15 55.72a9.2 9.2 0 109.19 9.19 9.2 9.2 0 00-9.19-9.19zm0 14.58a5.39 5.39 0 115.38-5.39 5.39 5.39 0 01-5.38 5.39zM23.91 46.15a1.91 1.91 0 00-1.91 1.9v6.2a1.91 1.91 0 003.81 0v-6.2a1.9 1.9 0 00-1.9-1.9zm8.47 0a1.9 1.9 0 00-1.91 1.9v6.2a1.91 1.91 0 003.81 0v-6.2a1.9 1.9 0 00-1.9-1.9zm8.46 0a1.9 1.9 0 00-1.9 1.9v6.2a1.91 1.91 0 003.81 0v-6.2a1.91 1.91 0 00-1.91-1.9z"></path>
    <path d="M106.15 42.59a1.89 1.89 0 001.53-.77 1.87 1.87 0 00.29-1.68c-1-3.32-3.06-9.11-6-16.76l-.11-.29h4.92a1.9 1.9 0 001.9-1.9V6.61a1.91 1.91 0 00-1.9-1.91h-4.65a9.15 9.15 0 00-8.95 7.13v.16H90.3v-2a10 10 0 00-10-9.94h-8.59a1.91 1.91 0 000 3.81h8.59a6.15 6.15 0 016.14 6.13v37.79l-.05.06a25.92 25.92 0 00-6.29 14.52v.19h-9L57.43 48.88V33.44a10 10 0 00-10-10H18.57a10 10 0 00-9.95 10v12.1l-.07.06A26.2 26.2 0 000 64.91a1.91 1.91 0 001.91 1.91h6.66V67A17.66 17.66 0 0043 70l.1-.34 7 7a1.9 1.9 0 001.35.56h22.39a1.91 1.91 0 001.54-.78l8-11a1.83 1.83 0 00.31-.68v-.16a22.35 22.35 0 0122.46-22.01zm-93.72-9.15a6.14 6.14 0 016.14-6.14h28.91a6.15 6.15 0 016.14 6.14v2H12.43zm27.38 33.62a13.85 13.85 0 01-27.36 0v-.24h4.73v.16a9.19 9.19 0 0017.92 0v-.16h4.73zm-18.72-.28h10.08l-.13.3a5.38 5.38 0 01-9.82 0zm51.83 6.64H52.28l-9.89-9.9a1.93 1.93 0 00-1.35-.55H3.89v-.24a22.24 22.24 0 017.84-14.91 1.89 1.89 0 00.68-1.45v-7.12H53.6v10.33a1.88 1.88 0 00.55 1.34L69 65.78a1.9 1.9 0 001.35.56h7.85zm29.25-64.95h2.74v10.81h-2.74a5.39 5.39 0 010-10.77zM90.3 15.78h2.88v.17a9.16 9.16 0 004 5.67h.06v.07c1.93 5 4.57 12 6.2 16.92l.12.24h-.31a26.13 26.13 0 00-12.67 5l-.34.25z"></path>
  </symbol>
</svg>

<svg class="icon">
  <use xlink:href="#bike"></use>
</svg><svg class="icon">
  <use xlink:href="#female"></use>
</svg><svg class="icon">
  <use xlink:href="#male"></use>
</svg><svg class="icon">
  <use xlink:href="#moto"></use>
</svg><svg class="icon">
  <use xlink:href="#motob"></use>
</svg>