<svg id="Layer_1" data-name="Layer 1" xmlns="http://www.w3.org/2000/svg" viewBox="0 0 167.87 221.6"><defs><style>.cls-1{fill:#020202;}</style></defs><title>female</title><path class="cls-1" d="M481.33,399.94H313.45V365a46,46,0,0,1,22.87-39.65,3,3,0,1,1,3,5.19A40,40,0,0,0,319.45,365v28.9H475.33V365a39.85,39.85,0,0,0-39.8-39.8H413.68V304.78a3,3,0,0,1,6,0v14.46h15.85a45.85,45.85,0,0,1,45.8,45.8Z" transform="translate(-313.45 -178.34)"/><path class="cls-1" d="M378.1,325.24a3,3,0,0,1-3-3V304.78a3,3,0,0,1,6,0v17.46A3,3,0,0,1,378.1,325.24Z" transform="translate(-313.45 -178.34)"/><path class="cls-1" d="M404.24,293.68h-13.7a3,3,0,0,1,0-6h13.7a3,3,0,0,1,0,6Z" transform="translate(-313.45 -178.34)"/><path class="cls-1" d="M338.17,358a3,3,0,0,1-3-3V240.34a62.07,62.07,0,0,1,62-62h4.66a62.07,62.07,0,0,1,62,62V329a3,3,0,0,1-6,0V240.34a56.06,56.06,0,0,0-56-56h-4.66a56.06,56.06,0,0,0-56,56V355A3,3,0,0,1,338.17,358Z" transform="translate(-313.45 -178.34)"/><path class="cls-1" d="M395.54,312.71c-10.33-.41-19.87-6.31-27.81-17.28-4.79-6.62-5.77-12.85-5.79-20.75,0-.1-.09-28.34-.11-34v-3h3c34.45,0,36.64-21,36.71-21.9l.24-2.75h2.75c17.63,0,32,13.45,32,30l0,29.66c.05,9.95-4.89,17.23-10.41,24.41-7.29,9.5-15.9,14.83-25.17,15.65C400.09,312.81,396.5,312.8,395.54,312.71Zm5.06-6c7.54-.71,14.5-5.17,20.75-13.31,5-6.57,9.21-12.66,9.17-20.74l0-29.68c0-12.48-10.36-22.77-23.54-23.9-1.83,6.83-9.33,23.46-39.12,24.51,0,8.22.1,30.76.1,31,0,6.89.79,11.91,4.65,17.25,6.77,9.36,14.41,14.32,22.76,14.78C395.51,306.68,400.28,306.63,400.6,306.74Z" transform="translate(-313.45 -178.34)"/><path class="cls-1" d="M318.5,377.34a3,3,0,0,1,0-6c9.19,0,16.67-7.18,16.67-16a3,3,0,0,1,6,0C341.17,367.47,331,377.34,318.5,377.34Z" transform="translate(-313.45 -178.34)"/><path class="cls-1" d="M359,377.84H317.83a3,3,0,0,1,0-6H359a16,16,0,0,0,16-16,3,3,0,1,1,6,0A22,22,0,0,1,359,377.84Z" transform="translate(-313.45 -178.34)"/><path class="cls-1" d="M378,358.51a3,3,0,0,1-3-3V322.17a3,3,0,0,1,6,0v33.34A3,3,0,0,1,378,358.51Z" transform="translate(-313.45 -178.34)"/><path class="cls-1" d="M397.39,349.17a35.73,35.73,0,0,1-21.14-7.11,3,3,0,1,1,3.54-4.84,29.81,29.81,0,0,0,17.6,5.95c12.36,0,24-8.36,30.32-21.81a3,3,0,0,1,5.43,2.55C425.79,339.49,412.09,349.17,397.39,349.17Z" transform="translate(-313.45 -178.34)"/></svg>