<svg id="Layer_1" data-name="Layer 1" xmlns="http://www.w3.org/2000/svg" viewBox="0 0 163.15 226.68"><title>male</title><path d="M274.13,546a44.93,44.93,0,0,1-44.79-42.15,11.9,11.9,0,0,1-9.69-11.68v-9.21A11.89,11.89,0,0,1,231.53,471h.5a3,3,0,0,1,0,6h-.5a5.89,5.89,0,0,0-5.88,5.88v9.21a5.88,5.88,0,0,0,5.88,5.88h.72a3,3,0,0,1,3,3,38.88,38.88,0,1,0,77.76.09,3.06,3.06,0,0,1,3-3.07h.72a5.88,5.88,0,0,0,5.88-5.88v-9.21a5.89,5.89,0,0,0-5.88-5.88h-.49a3,3,0,0,1,0-6h.49a11.89,11.89,0,0,1,11.88,11.88v9.21a11.9,11.9,0,0,1-9.68,11.68A45,45,0,0,1,274.13,546Z" transform="translate(-192.56 -411.06)"/><path d="M355.71,637.74H192.56v-34a44.6,44.6,0,0,1,44.55-44.56H247.7V538.48a3,3,0,0,1,6,0v26.74H237.11a38.6,38.6,0,0,0-38.55,38.56v28H349.71v-28a38.6,38.6,0,0,0-38.55-38.56H294.57V538.48a3,3,0,0,1,6,0v20.74h10.59a44.61,44.61,0,0,1,44.55,44.56Z" transform="translate(-192.56 -411.06)"/><path d="M316.67,476.62a3,3,0,0,1-3-3V462.86c0-13.68-4.29-25.23-11.76-31.68a3,3,0,0,1,3.93-4.54c8.79,7.6,13.83,20.8,13.83,36.22v10.76A3,3,0,0,1,316.67,476.62Z" transform="translate(-192.56 -411.06)"/><path d="M315.9,477a3,3,0,0,1-2.9-2.23,40.46,40.46,0,0,0-39.1-30,40.45,40.45,0,0,0-39.1,30,3,3,0,1,1-5.8-1.55,46.48,46.48,0,0,1,37.1-33.76,47.19,47.19,0,0,1,7.8-.65,46.47,46.47,0,0,1,44.9,34.42,3,3,0,0,1-2.13,3.67A3,3,0,0,1,315.9,477Z" transform="translate(-192.56 -411.06)"/><path d="M231.91,476.62a3,3,0,0,1-3-3V462.86a45.56,45.56,0,0,1,22.55-39.22c1.62-.95,20.6-11.73,21.4-12.19a3,3,0,0,1,4.29,3.68l-1.95,5.09,10.11-3.71a3,3,0,0,1,3.84,3.88l-1.06,2.8,10.1-3.72a3,3,0,0,1,3.84,3.88l-1.06,2.8.76-.28a3,3,0,1,1,2.07,5.63l-6.95,2.56a3,3,0,0,1-3.84-3.89l1.07-2.79L284,431.09a3,3,0,0,1-3.84-3.88l1.07-2.8-10.11,3.72a3,3,0,0,1-3.84-3.88l1.31-3.45-14.08,8a39.55,39.55,0,0,0-19.57,34v10.76A3,3,0,0,1,231.91,476.62Z" transform="translate(-192.56 -411.06)"/><path d="M282,520.73H266.27a3,3,0,0,1,0-6H282a3,3,0,0,1,0,6Z" transform="translate(-192.56 -411.06)"/><path d="M301,595.27H247.29a7.71,7.71,0,0,1-7.7-7.71V562.14a3,3,0,0,1,6,0v25.42a1.7,1.7,0,0,0,1.7,1.71H301a1.71,1.71,0,0,0,1.71-1.71V563.08a3,3,0,0,1,6,0v24.48A7.71,7.71,0,0,1,301,595.27Z" transform="translate(-192.56 -411.06)"/></svg>